<mxfile host="www.draw.io" modified="2020-03-07T16:55:36.370Z" agent="Mozilla/5.0 (Windows NT 10.0; Win64; x64) AppleWebKit/537.36 (KHTML, like Gecko) Chrome/80.0.3987.132 Safari/537.36" etag="egTtk7huIiUZ7SV_TOTI" version="12.8.1" type="github">
  <diagram id="8f2zmmfFZKk6P0BAQr87" name="Page-1">
    <mxGraphModel dx="1019" dy="519" grid="1" gridSize="10" guides="1" tooltips="1" connect="1" arrows="1" fold="1" page="1" pageScale="1" pageWidth="827" pageHeight="1169" math="0" shadow="0">
      <root>
        <mxCell id="0" />
        <mxCell id="1" parent="0" />
        <mxCell id="hyTaoeyC01FmIY58l2yn-6" value="" style="edgeStyle=orthogonalEdgeStyle;rounded=0;orthogonalLoop=1;jettySize=auto;html=1;entryX=0.5;entryY=1;entryDx=0;entryDy=0;fontSize=15;fontStyle=1;fontColor=#000000;strokeColor=#000000;" parent="1" source="hyTaoeyC01FmIY58l2yn-1" target="hyTaoeyC01FmIY58l2yn-3" edge="1">
          <mxGeometry relative="1" as="geometry">
            <mxPoint x="148" y="401.0000000000001" as="targetPoint" />
          </mxGeometry>
        </mxCell>
        <mxCell id="hyTaoeyC01FmIY58l2yn-1" value="x&lt;sub style=&quot;font-size: 15px;&quot;&gt;t&lt;/sub&gt;" style="ellipse;whiteSpace=wrap;html=1;aspect=fixed;fillColor=#b1ddf0;strokeColor=#000000;fontSize=15;fontStyle=1;fontColor=#000000;" parent="1" vertex="1">
          <mxGeometry x="130" y="481" width="36" height="36" as="geometry" />
        </mxCell>
        <mxCell id="hyTaoeyC01FmIY58l2yn-2" value="h&lt;sub style=&quot;font-size: 15px;&quot;&gt;t&lt;/sub&gt;" style="ellipse;whiteSpace=wrap;html=1;aspect=fixed;fillColor=none;strokeColor=#000000;fontColor=#000000;fontSize=15;fontStyle=1" parent="1" vertex="1">
          <mxGeometry x="130" y="350" width="36" height="36" as="geometry" />
        </mxCell>
        <mxCell id="hyTaoeyC01FmIY58l2yn-8" value="" style="edgeStyle=orthogonalEdgeStyle;rounded=0;orthogonalLoop=1;jettySize=auto;html=1;entryX=0.5;entryY=1;entryDx=0;entryDy=0;fontSize=15;fontStyle=1;fontColor=#000000;strokeColor=#000000;" parent="1" source="hyTaoeyC01FmIY58l2yn-3" target="hyTaoeyC01FmIY58l2yn-2" edge="1">
          <mxGeometry relative="1" as="geometry">
            <mxPoint x="148" y="390" as="targetPoint" />
          </mxGeometry>
        </mxCell>
        <mxCell id="hyTaoeyC01FmIY58l2yn-13" value="" style="edgeStyle=orthogonalEdgeStyle;rounded=0;orthogonalLoop=1;jettySize=auto;html=1;entryX=-0.039;entryY=0.472;entryDx=0;entryDy=0;entryPerimeter=0;fontSize=15;fontStyle=1;fontColor=#000000;strokeColor=#000000;" parent="1" source="hyTaoeyC01FmIY58l2yn-3" target="hyTaoeyC01FmIY58l2yn-3" edge="1">
          <mxGeometry relative="1" as="geometry">
            <mxPoint x="30" y="435" as="targetPoint" />
            <Array as="points">
              <mxPoint x="220" y="435" />
              <mxPoint x="220" y="400" />
              <mxPoint x="80" y="400" />
              <mxPoint x="80" y="434" />
            </Array>
          </mxGeometry>
        </mxCell>
        <mxCell id="hyTaoeyC01FmIY58l2yn-3" value="A" style="rounded=0;whiteSpace=wrap;html=1;fillColor=none;strokeColor=#000000;fontSize=15;fontStyle=1;fontColor=#000000;" parent="1" vertex="1">
          <mxGeometry x="118" y="420" width="60" height="30" as="geometry" />
        </mxCell>
        <mxCell id="hyTaoeyC01FmIY58l2yn-39" value="" style="edgeStyle=orthogonalEdgeStyle;rounded=0;orthogonalLoop=1;jettySize=auto;html=1;entryX=0.5;entryY=1;entryDx=0;entryDy=0;fontSize=15;fontStyle=1;fontColor=#000000;strokeColor=#000000;" parent="1" source="hyTaoeyC01FmIY58l2yn-40" target="hyTaoeyC01FmIY58l2yn-43" edge="1">
          <mxGeometry relative="1" as="geometry">
            <mxPoint x="340" y="401.0000000000001" as="targetPoint" />
          </mxGeometry>
        </mxCell>
        <mxCell id="hyTaoeyC01FmIY58l2yn-40" value="x&lt;span style=&quot;font-size: 15px;&quot;&gt;&lt;sub style=&quot;font-size: 15px;&quot;&gt;0&lt;/sub&gt;&lt;/span&gt;" style="ellipse;whiteSpace=wrap;html=1;aspect=fixed;fillColor=#b1ddf0;strokeColor=#000000;fontSize=15;fontStyle=1;fontColor=#000000;" parent="1" vertex="1">
          <mxGeometry x="322" y="481" width="36" height="36" as="geometry" />
        </mxCell>
        <mxCell id="hyTaoeyC01FmIY58l2yn-41" value="h&lt;sub style=&quot;font-size: 15px;&quot;&gt;0&lt;/sub&gt;" style="ellipse;whiteSpace=wrap;html=1;aspect=fixed;fillColor=none;strokeColor=#000000;fontColor=#000000;fontSize=15;fontStyle=1" parent="1" vertex="1">
          <mxGeometry x="322" y="350" width="36" height="36" as="geometry" />
        </mxCell>
        <mxCell id="hyTaoeyC01FmIY58l2yn-42" value="" style="edgeStyle=orthogonalEdgeStyle;rounded=0;orthogonalLoop=1;jettySize=auto;html=1;entryX=0.5;entryY=1;entryDx=0;entryDy=0;fontSize=15;fontStyle=1;fontColor=#000000;strokeColor=#000000;" parent="1" source="hyTaoeyC01FmIY58l2yn-43" target="hyTaoeyC01FmIY58l2yn-41" edge="1">
          <mxGeometry relative="1" as="geometry">
            <mxPoint x="340" y="390" as="targetPoint" />
          </mxGeometry>
        </mxCell>
        <mxCell id="hyTaoeyC01FmIY58l2yn-59" value="" style="edgeStyle=orthogonalEdgeStyle;rounded=0;orthogonalLoop=1;jettySize=auto;html=1;fontSize=15;fontStyle=1;fontColor=#000000;strokeColor=#000000;" parent="1" source="hyTaoeyC01FmIY58l2yn-43" target="hyTaoeyC01FmIY58l2yn-48" edge="1">
          <mxGeometry relative="1" as="geometry" />
        </mxCell>
        <mxCell id="hyTaoeyC01FmIY58l2yn-43" value="A" style="rounded=0;whiteSpace=wrap;html=1;fillColor=none;strokeColor=#000000;fontSize=15;fontStyle=1;fontColor=#000000;" parent="1" vertex="1">
          <mxGeometry x="310" y="420" width="60" height="30" as="geometry" />
        </mxCell>
        <mxCell id="hyTaoeyC01FmIY58l2yn-44" value="" style="edgeStyle=orthogonalEdgeStyle;rounded=0;orthogonalLoop=1;jettySize=auto;html=1;entryX=0.5;entryY=1;entryDx=0;entryDy=0;fontSize=15;fontStyle=1;fontColor=#000000;strokeColor=#000000;" parent="1" source="hyTaoeyC01FmIY58l2yn-45" target="hyTaoeyC01FmIY58l2yn-48" edge="1">
          <mxGeometry relative="1" as="geometry">
            <mxPoint x="440" y="401.0000000000001" as="targetPoint" />
          </mxGeometry>
        </mxCell>
        <mxCell id="hyTaoeyC01FmIY58l2yn-45" value="x&lt;sub style=&quot;font-size: 15px;&quot;&gt;1&lt;/sub&gt;" style="ellipse;whiteSpace=wrap;html=1;aspect=fixed;fillColor=none;strokeColor=#000000;fontSize=15;fontStyle=1;fontColor=#000000;" parent="1" vertex="1">
          <mxGeometry x="422" y="481" width="36" height="36" as="geometry" />
        </mxCell>
        <mxCell id="hyTaoeyC01FmIY58l2yn-46" value="h&lt;sub style=&quot;font-size: 15px;&quot;&gt;1&lt;/sub&gt;" style="ellipse;whiteSpace=wrap;html=1;aspect=fixed;fillColor=#aa00ff;strokeColor=#000000;fontColor=#000000;fontSize=15;fontStyle=1" parent="1" vertex="1">
          <mxGeometry x="422" y="350" width="36" height="36" as="geometry" />
        </mxCell>
        <mxCell id="hyTaoeyC01FmIY58l2yn-47" value="" style="edgeStyle=orthogonalEdgeStyle;rounded=0;orthogonalLoop=1;jettySize=auto;html=1;entryX=0.5;entryY=1;entryDx=0;entryDy=0;fontSize=15;fontStyle=1;fontColor=#000000;strokeColor=#000000;" parent="1" source="hyTaoeyC01FmIY58l2yn-48" target="hyTaoeyC01FmIY58l2yn-46" edge="1">
          <mxGeometry relative="1" as="geometry">
            <mxPoint x="440" y="390" as="targetPoint" />
          </mxGeometry>
        </mxCell>
        <mxCell id="hyTaoeyC01FmIY58l2yn-60" value="" style="edgeStyle=orthogonalEdgeStyle;rounded=0;orthogonalLoop=1;jettySize=auto;html=1;fontSize=15;fontStyle=1;fontColor=#000000;strokeColor=#000000;" parent="1" source="hyTaoeyC01FmIY58l2yn-48" target="hyTaoeyC01FmIY58l2yn-53" edge="1">
          <mxGeometry relative="1" as="geometry" />
        </mxCell>
        <mxCell id="hyTaoeyC01FmIY58l2yn-48" value="A" style="rounded=0;whiteSpace=wrap;html=1;fillColor=none;strokeColor=#000000;fontSize=15;fontStyle=1;fontColor=#000000;" parent="1" vertex="1">
          <mxGeometry x="410" y="420" width="60" height="30" as="geometry" />
        </mxCell>
        <mxCell id="hyTaoeyC01FmIY58l2yn-49" value="" style="edgeStyle=orthogonalEdgeStyle;rounded=0;orthogonalLoop=1;jettySize=auto;html=1;entryX=0.5;entryY=1;entryDx=0;entryDy=0;fontSize=15;fontStyle=1;fontColor=#000000;strokeColor=#000000;" parent="1" source="hyTaoeyC01FmIY58l2yn-50" target="hyTaoeyC01FmIY58l2yn-53" edge="1">
          <mxGeometry relative="1" as="geometry">
            <mxPoint x="540" y="401.0000000000001" as="targetPoint" />
          </mxGeometry>
        </mxCell>
        <mxCell id="hyTaoeyC01FmIY58l2yn-50" value="x&lt;sub style=&quot;font-size: 15px;&quot;&gt;2&lt;/sub&gt;" style="ellipse;whiteSpace=wrap;html=1;aspect=fixed;fillColor=none;strokeColor=#000000;fontSize=15;fontStyle=1;fontColor=#000000;" parent="1" vertex="1">
          <mxGeometry x="522" y="481" width="36" height="36" as="geometry" />
        </mxCell>
        <mxCell id="hyTaoeyC01FmIY58l2yn-51" value="h&lt;sub style=&quot;font-size: 15px;&quot;&gt;2&lt;/sub&gt;" style="ellipse;whiteSpace=wrap;html=1;aspect=fixed;fillColor=none;strokeColor=#000000;fontColor=#000000;fontSize=15;fontStyle=1" parent="1" vertex="1">
          <mxGeometry x="522" y="350" width="36" height="36" as="geometry" />
        </mxCell>
        <mxCell id="hyTaoeyC01FmIY58l2yn-52" value="" style="edgeStyle=orthogonalEdgeStyle;rounded=0;orthogonalLoop=1;jettySize=auto;html=1;entryX=0.5;entryY=1;entryDx=0;entryDy=0;fontSize=15;fontStyle=1;fontColor=#000000;strokeColor=#000000;" parent="1" source="hyTaoeyC01FmIY58l2yn-53" target="hyTaoeyC01FmIY58l2yn-51" edge="1">
          <mxGeometry relative="1" as="geometry">
            <mxPoint x="540" y="390" as="targetPoint" />
          </mxGeometry>
        </mxCell>
        <mxCell id="hyTaoeyC01FmIY58l2yn-62" value="" style="edgeStyle=orthogonalEdgeStyle;rounded=0;orthogonalLoop=1;jettySize=auto;html=1;fontSize=15;fontStyle=1;fontColor=#000000;strokeColor=#000000;" parent="1" source="hyTaoeyC01FmIY58l2yn-53" edge="1">
          <mxGeometry relative="1" as="geometry">
            <mxPoint x="660" y="435" as="targetPoint" />
          </mxGeometry>
        </mxCell>
        <mxCell id="hyTaoeyC01FmIY58l2yn-53" value="A" style="rounded=0;whiteSpace=wrap;html=1;fillColor=none;strokeColor=#000000;fontSize=15;fontStyle=1;fontColor=#000000;" parent="1" vertex="1">
          <mxGeometry x="510" y="420" width="60" height="30" as="geometry" />
        </mxCell>
        <mxCell id="hyTaoeyC01FmIY58l2yn-54" value="" style="edgeStyle=orthogonalEdgeStyle;rounded=0;orthogonalLoop=1;jettySize=auto;html=1;entryX=0.5;entryY=1;entryDx=0;entryDy=0;fontSize=15;fontStyle=1;fontColor=#000000;strokeColor=#000000;" parent="1" source="hyTaoeyC01FmIY58l2yn-55" target="hyTaoeyC01FmIY58l2yn-58" edge="1">
          <mxGeometry relative="1" as="geometry">
            <mxPoint x="690.1666666666667" y="401.0000000000001" as="targetPoint" />
          </mxGeometry>
        </mxCell>
        <mxCell id="hyTaoeyC01FmIY58l2yn-55" value="x&lt;sub style=&quot;font-size: 15px;&quot;&gt;t&lt;/sub&gt;" style="ellipse;whiteSpace=wrap;html=1;aspect=fixed;fillColor=none;strokeColor=#000000;fontSize=15;fontStyle=1;gradientColor=#ffffff;fontColor=#000000;" parent="1" vertex="1">
          <mxGeometry x="672.1666666666667" y="481" width="36" height="36" as="geometry" />
        </mxCell>
        <mxCell id="hyTaoeyC01FmIY58l2yn-56" value="&lt;font&gt;h&lt;sub style=&quot;font-size: 15px&quot;&gt;t&lt;/sub&gt;&lt;/font&gt;" style="ellipse;whiteSpace=wrap;html=1;aspect=fixed;fillColor=none;strokeColor=#000000;fontColor=#000000;fontSize=15;fontStyle=1" parent="1" vertex="1">
          <mxGeometry x="672.1666666666667" y="350" width="36" height="36" as="geometry" />
        </mxCell>
        <mxCell id="hyTaoeyC01FmIY58l2yn-57" value="" style="edgeStyle=orthogonalEdgeStyle;rounded=0;orthogonalLoop=1;jettySize=auto;html=1;entryX=0.5;entryY=1;entryDx=0;entryDy=0;fontSize=15;fontStyle=1;fontColor=#000000;strokeColor=#000000;" parent="1" source="hyTaoeyC01FmIY58l2yn-58" target="hyTaoeyC01FmIY58l2yn-56" edge="1">
          <mxGeometry relative="1" as="geometry">
            <mxPoint x="690.1666666666667" y="390" as="targetPoint" />
          </mxGeometry>
        </mxCell>
        <mxCell id="hyTaoeyC01FmIY58l2yn-58" value="A" style="rounded=0;whiteSpace=wrap;html=1;fillColor=none;strokeColor=#000000;fontSize=15;fontStyle=1;fontColor=#000000;" parent="1" vertex="1">
          <mxGeometry x="660.1666666666667" y="420" width="60" height="30" as="geometry" />
        </mxCell>
        <mxCell id="USBon0L1Z-8ryEmSpkTE-1" value="" style="shape=flexArrow;endArrow=classic;html=1;fontColor=#000000;strokeColor=#000000;" edge="1" parent="1">
          <mxGeometry width="50" height="50" relative="1" as="geometry">
            <mxPoint x="250" y="434.5" as="sourcePoint" />
            <mxPoint x="298" y="434.5" as="targetPoint" />
          </mxGeometry>
        </mxCell>
        <mxCell id="USBon0L1Z-8ryEmSpkTE-2" value="x&lt;sub style=&quot;font-size: 15px;&quot;&gt;t&lt;/sub&gt;" style="ellipse;whiteSpace=wrap;html=1;aspect=fixed;fillColor=#ffffff;strokeColor=#000000;fontSize=15;fontStyle=1;gradientColor=#ffffff;fontColor=#000000;" vertex="1" parent="1">
          <mxGeometry x="130" y="481" width="36" height="36" as="geometry" />
        </mxCell>
        <mxCell id="USBon0L1Z-8ryEmSpkTE-3" value="x&lt;span style=&quot;font-size: 15px;&quot;&gt;&lt;sub style=&quot;font-size: 15px;&quot;&gt;0&lt;/sub&gt;&lt;/span&gt;" style="ellipse;whiteSpace=wrap;html=1;aspect=fixed;fillColor=#ffffff;strokeColor=#000000;fontSize=15;fontStyle=1;fontColor=#000000;" vertex="1" parent="1">
          <mxGeometry x="322" y="481" width="36" height="36" as="geometry" />
        </mxCell>
        <mxCell id="USBon0L1Z-8ryEmSpkTE-6" value="h&lt;sub style=&quot;font-size: 15px;&quot;&gt;1&lt;/sub&gt;" style="ellipse;whiteSpace=wrap;html=1;aspect=fixed;fillColor=#ffffff;strokeColor=#000000;fontColor=#000000;fontSize=15;fontStyle=1" vertex="1" parent="1">
          <mxGeometry x="422" y="350" width="36" height="36" as="geometry" />
        </mxCell>
        <mxCell id="USBon0L1Z-8ryEmSpkTE-7" value="&lt;font style=&quot;font-size: 20px&quot;&gt;......&lt;/font&gt;" style="text;html=1;strokeColor=none;fillColor=none;align=center;verticalAlign=middle;whiteSpace=wrap;rounded=0;fontColor=#000000;" vertex="1" parent="1">
          <mxGeometry x="590" y="489" width="40" height="20" as="geometry" />
        </mxCell>
      </root>
    </mxGraphModel>
  </diagram>
</mxfile>
